<svg width="40" height="18" viewBox="0 0 40 18" fill="none" xmlns="http://www.w3.org/2000/svg">
<rect width="40" height="18" rx="9" fill="#FF4965"/>
<g filter="url(#filter0_d_4501_777)">
<circle cx="10" cy="9" r="7" fill="white"/>
</g>
<path d="M26.328 11.112L25.832 3.8H28.808L28.312 11.112H26.328ZM27.32 15.128C26.872 15.128 26.504 14.984 26.216 14.696C25.928 14.408 25.784 14.0667 25.784 13.672C25.784 13.2667 25.928 12.9307 26.216 12.664C26.504 12.3867 26.872 12.248 27.32 12.248C27.7787 12.248 28.1467 12.3867 28.424 12.664C28.712 12.9307 28.856 13.2667 28.856 13.672C28.856 14.0667 28.712 14.408 28.424 14.696C28.1467 14.984 27.7787 15.128 27.32 15.128Z" fill="white"/>
<defs>
<filter id="filter0_d_4501_777" x="2" y="2" width="16" height="16" filterUnits="userSpaceOnUse" color-interpolation-filters="sRGB">
<feFlood flood-opacity="0" result="BackgroundImageFix"/>
<feColorMatrix in="SourceAlpha" type="matrix" values="0 0 0 0 0 0 0 0 0 0 0 0 0 0 0 0 0 0 127 0" result="hardAlpha"/>
<feOffset dy="1"/>
<feGaussianBlur stdDeviation="0.5"/>
<feColorMatrix type="matrix" values="0 0 0 0 0 0 0 0 0 0 0 0 0 0 0 0 0 0 0.25 0"/>
<feBlend mode="normal" in2="BackgroundImageFix" result="effect1_dropShadow_4501_777"/>
<feBlend mode="normal" in="SourceGraphic" in2="effect1_dropShadow_4501_777" result="shape"/>
</filter>
</defs>
</svg>
