<svg width="18" height="19" viewBox="0 0 18 19" fill="none" xmlns="http://www.w3.org/2000/svg">
<g clip-path="url(#clip0_4104_2516)">
<path d="M12.7266 14.6331V16.0337C12.7266 17.5783 11.4649 18.8349 9.91406 18.8349H2.84766C1.2968 18.8349 0.0351562 17.5783 0.0351562 16.0337V3.70853C0.0351562 2.16391 1.2968 0.907349 2.84766 0.907349H9.91406C11.4649 0.907349 12.7266 2.16391 12.7266 3.70853V5.10912C12.7266 5.49592 12.4118 5.80941 12.0234 5.80941C11.6351 5.80941 11.3203 5.49592 11.3203 5.10912V3.70853C11.3203 2.93629 10.6894 2.30794 9.91406 2.30794H2.84766C2.0723 2.30794 1.44141 2.93629 1.44141 3.70853V16.0337C1.44141 16.8059 2.0723 17.4343 2.84766 17.4343H9.91406C10.6894 17.4343 11.3203 16.8059 11.3203 16.0337V14.6331C11.3203 14.2463 11.6351 13.9328 12.0234 13.9328C12.4118 13.9328 12.7266 14.2463 12.7266 14.6331ZM17.5203 8.66817L15.9458 7.10003C15.6712 6.82648 15.226 6.82648 14.9514 7.10003C14.6768 7.37345 14.6768 7.81687 14.9514 8.09029L16.0714 9.20584H7.62891C7.24054 9.20584 6.92578 9.51933 6.92578 9.90613C6.92578 10.2929 7.24054 10.6064 7.62891 10.6064H16.0714L14.9514 11.722C14.6768 11.9954 14.6768 12.4388 14.9514 12.7122C15.0888 12.849 15.2687 12.9174 15.4486 12.9174C15.6286 12.9174 15.8085 12.849 15.9458 12.7122L17.5203 11.1441C18.2057 10.4614 18.2057 9.35082 17.5203 8.66817Z" fill="#858598"/>
</g>
<defs>
<clipPath id="clip0_4104_2516">
<rect width="18" height="17.9275" fill="white" transform="translate(0 0.907349)"/>
</clipPath>
</defs>
</svg>
